<?xml version="1.0" encoding="utf-8"?>
<!-- Generator: Adobe Illustrator 23.0.0, SVG Export Plug-In . SVG Version: 6.00 Build 0)  -->
<svg version="1.1" id="Layer_1" xmlns="http://www.w3.org/2000/svg" xmlns:xlink="http://www.w3.org/1999/xlink" x="0px" y="0px"
	 viewBox="0 0 82 48" style="enable-background:new 0 0 82 48;" xml:space="preserve">
<style type="text/css">
	.st0{fill:#FFFFFF;}
</style>
<path class="st0" d="M40.86,2c-7.52,0-13.64,6.03-13.64,13.44c0,3.84,1.62,8.04,4.34,11.25c0.02,0.04,0.04,0.07,0.07,0.1
	c0.03,0.04,2.96,3.69,3.44,6.67c-0.27,0.16-0.45,0.44-0.45,0.77v9.81c0,0.51,0.41,0.92,0.92,0.92h1.78l1.49,1.72
	c0.17,0.2,0.43,0.32,0.69,0.32h2.72c0.27,0,0.52-0.12,0.69-0.32l1.49-1.72h1.78c0.51,0,0.92-0.41,0.92-0.92v-9.81
	c0-0.32-0.17-0.58-0.41-0.75c0.46-2.99,3.41-6.66,3.44-6.7c0.05-0.07,0.1-0.14,0.13-0.22c2.66-3.19,4.24-7.33,4.24-11.13
	C54.5,8.03,48.38,2,40.86,2z M45.26,43.13h-1.28c-0.27,0-0.52,0.12-0.69,0.32l-1.49,1.72h-1.89l-1.49-1.72
	c-0.17-0.2-0.43-0.32-0.69-0.32h-1.28v-7.97h8.82V43.13z M48.68,25.58c-0.07,0.08-0.12,0.17-0.15,0.27
	c-0.7,0.91-3.22,4.35-3.67,7.46h-3.08V23.26c0.25,0.07,0.51,0.12,0.79,0.12h0c1.14,0,2.4-0.6,3.37-1.61
	c1.66-1.73,1.97-4.03,0.71-5.25c-0.48-0.46-1.12-0.7-1.85-0.7c-1.14,0-2.4,0.6-3.37,1.61c-0.21,0.22-0.39,0.45-0.56,0.69
	c-0.17-0.24-0.35-0.47-0.56-0.69c-0.97-1.01-2.23-1.61-3.37-1.61c-0.73,0-1.37,0.24-1.85,0.7c-1.27,1.22-0.96,3.52,0.71,5.25
	c0.97,1.01,2.23,1.61,3.37,1.61c0.28,0,0.54-0.05,0.79-0.11v10.06h-3.03c-0.47-3.25-3.2-6.86-3.75-7.57
	c-0.03-0.05-0.06-0.1-0.1-0.15c-2.46-2.86-3.99-6.75-3.99-10.16c0-6.4,5.3-11.6,11.8-11.6c6.51,0,11.8,5.2,11.8,11.6
	C52.66,18.84,51.14,22.73,48.68,25.58z M41.81,20.38c0.1-0.56,0.45-1.18,0.94-1.69c0.62-0.65,1.4-1.05,2.04-1.05
	c0.25,0,0.44,0.06,0.57,0.19c0.44,0.42,0.21,1.65-0.76,2.65c-0.62,0.65-1.4,1.05-2.04,1.05c-0.25,0-0.44-0.06-0.58-0.19
	C41.71,21.08,41.77,20.59,41.81,20.38z M39.73,21.35c-0.13,0.12-0.32,0.19-0.57,0.19c-0.64,0-1.42-0.4-2.04-1.05
	c-0.97-1-1.2-2.23-0.76-2.65c0.13-0.12,0.32-0.19,0.57-0.19c0.64,0,1.42,0.4,2.04,1.05c0.49,0.51,0.83,1.12,0.94,1.69
	C39.94,20.59,40,21.08,39.73,21.35z"/>
</svg>
